PathFileType	4	(X/Y/Z)	C:\Users\WrightLab\Desktop\Jo\P5V122.trc
DataRate	CameraRate	NumFrames	NumMarkers	Units	OrigDataRate	OrigDataStartFrame	OrigNumFrames
100.00	100.00	       13	19	mm	100.00	143	       569
Frame#	Time	Headset_Front			Headset_Back			Headset_Left			Headset_Right			Left_Shoulder			Right_Shoulder			Sternum			C7			Left Elbow			Right Elbow			Left Wrist			Right Wrist			Left ASIS			Right ASIS			S2			Left Knee			Right Knee			Left Ankle			Right Ankle			
		X1	Y1	Z1	X2	Y2	Z2	X3	Y3	Z3	X4	Y4	Z4	X5	Y5	Z5	X6	Y6	Z6	X7	Y7	Z7	X8	Y8	Z8	X9	Y9	Z9	X10	Y10	Z10	X11	Y11	Z11	X12	Y12	Z12	X13	Y13	Z13	X14	Y14	Z14	X15	Y15	Z15	X16	Y16	Z16	X17	Y17	Z17	X18	Y18	Z18	X19	Y19	Z19	

143	1.420	-382.57523	1619.14600	-537.34955	-510.69583	1488.30933	-747.82349							-307.30130	1456.11841	-607.55530	-718.06586	1428.86450	-648.61456	-538.91858	1287.06213	-546.44049	-506.25659	1731.15222	-601.72791	-225.33188	1156.83459	-644.47406	-803.28119	1154.96472	-703.08875	-193.32401	913.40485	-588.08252	-835.28149	902.98999	-613.70288	-409.76059	893.70490	-517.00378	-667.08344	916.62445	-607.27850	-457.29227	936.43341	-813.90802	-443.05292	492.86206	-456.82932	-653.37292	456.48157	-749.57678	-524.83887	75.05147	-446.65601				
144	1.430	-382.23254	1619.44580	-528.60547	-509.33115	1488.30750	-739.41229							-307.29312	1455.75745	-597.80469	-717.87354	1430.48804	-640.43231	-540.47363	1288.04199	-535.96906				-225.82263	1156.61682	-635.19580	-802.98474	1155.85803	-695.65948	-192.94754	912.29187	-577.94135	-837.44385	904.22876	-605.30969	-412.27353	893.55682	-505.67300	-668.33466	916.78241	-597.43243	-458.30273	935.89197	-803.85199	-443.59140	489.22845	-449.74854	-653.80212	455.67578	-740.25049	-524.63318	75.13258	-442.11273				
145	1.440	-381.55472	1619.31274	-519.04926	-507.96295	1487.96423	-730.57904							-306.25650	1455.56018	-588.26312	-715.96161	1431.49109	-631.81525	-540.96497	1288.83826	-526.68085	-503.91733	1732.32800	-583.31891	-225.09357	1154.83826	-622.41174	-803.05499	1156.93579	-687.36438	-191.61382	911.91675	-567.95770	-838.02161	905.08209	-597.30005	-413.95593	894.17145	-492.89105	-671.02002	918.43628	-587.00769	-459.06308	934.33301	-793.15393	-443.43997	486.04861	-443.71054	-654.11719	456.18839	-729.81592	-525.60583	73.41644	-437.96542				
146	1.450	-380.67035	1619.82849	-510.09439	-506.56079	1488.24744	-721.63196							-306.19431	1454.72449	-577.42883	-715.76044	1432.88159	-624.75128	-540.93182	1289.89343	-516.22662				-225.53552	1154.78271	-613.02289	-802.56134	1158.00012	-679.31036	-191.96394	910.62976	-557.32098	-840.16248	906.96484	-588.96979	-416.74185	894.52753	-482.31384	-673.01556	920.24298	-576.09253	-459.54211	933.90259	-782.43610	-442.66742	482.52441	-437.85364	-654.68542	456.91708	-719.73743	-526.02020	73.67289	-435.44308				
147	1.460	-379.65765	1620.35181	-499.04297	-505.39719	1488.52600	-712.56494							-305.98535	1455.19946	-568.02814	-716.06775	1434.51917	-617.12378	-542.56421	1292.21716	-506.99963				-225.69261	1154.92285	-600.62067	-802.37677	1159.52991	-671.73920	-191.80191	910.45844	-547.70258	-841.33618	908.00262	-581.53271	-418.45047	896.13416	-470.03601	-675.63202	921.70721	-565.32013	-460.66193	933.97034	-772.12012	-442.58090	479.69617	-431.58908	-655.37622	456.41843	-708.82434	-526.34943	73.21255	-434.84650				
148	1.470	-378.65540	1621.31519	-490.49484	-504.27161	1489.43628	-703.86017							-304.95953	1455.87390	-558.60468	-715.99194	1436.49805	-609.14087	-542.84424	1294.17236	-497.13123				-225.23549	1155.48755	-590.07764	-802.47699	1161.15918	-663.39227	-191.77559	910.62427	-537.47784	-841.91907	909.86871	-573.78699	-420.87662	897.00854	-457.41229	-677.29449	923.96844	-553.96948	-461.58575	934.70996	-761.09656	-442.72617	478.87570	-426.99118	-655.11542	457.38605	-696.86060	-525.73792	74.10715	-434.12204	-571.30530	136.56601	-974.59412	
149	1.480	-377.66916	1622.41931	-481.71625	-503.17685	1490.34753	-694.56531							-304.58258	1456.48792	-549.24176	-716.83710	1438.95569	-601.26422	-544.00641	1296.49353	-486.99170				-226.33884	1155.96790	-581.63190	-801.88184	1162.85669	-655.47809	-191.07426	911.74097	-526.09613	-844.23956	912.38934	-565.51257	-423.29764	899.11304	-447.66870	-679.16370	925.93225	-541.46918	-462.62381	934.89618	-748.78363	-442.78058	480.53247	-420.26318	-656.52600	458.46988	-684.07001	-525.98083	74.60217	-432.04617	-574.70514	143.16153	-967.72937	
150	1.490	-376.48596	1623.39246	-473.25256	-502.39584	1491.27881	-685.84967							-304.17386	1457.72400	-540.32611	-715.60480	1440.64734	-592.65839	-542.98102	1298.56067	-476.16867				-226.59372	1157.14136	-569.68579	-801.60535	1165.09961	-647.90277	-191.15198	911.90875	-516.40167	-844.91589	914.98859	-557.74921	-422.43512	900.91693	-434.87671	-679.88171	928.00494	-529.30090	-462.89911	935.52386	-738.48193	-444.51068	482.21976	-412.78323	-657.12500	459.39618	-670.83112	-526.25830	74.00186	-430.77963	-578.33240	147.95352	-958.05872	
151	1.500	-375.32007	1624.68433	-464.09000	-501.67273	1492.37170	-676.77551							-303.94208	1458.90588	-530.85663	-714.89178	1442.53589	-583.50415	-544.42706	1301.41309	-466.63925				-227.06140	1158.67432	-560.53674	-801.10474	1167.38831	-639.92700	-191.52328	913.32776	-504.97296	-846.03851	917.68848	-549.59991	-423.58347	903.43018	-424.31329	-681.66229	931.24536	-518.01868	-463.75992	936.47473	-727.28522	-446.25067	484.43674	-405.74066	-659.27478	462.31183	-658.12872	-526.71442	73.24782	-430.54053	-582.97009	153.78868	-946.67908	
152	1.510	-374.06067	1625.45459	-455.88611	-500.94318	1493.65210	-668.22510							-302.91788	1460.55188	-522.53424	-716.06213	1445.14954	-575.29236	-543.31628	1303.66553	-457.94778				-228.07271	1160.13916	-548.82617	-800.42212	1169.14636	-632.06519	-191.92372	914.06714	-494.56702	-847.02344	919.84711	-541.20795	-423.39252	905.03564	-413.70984	-683.01715	933.69220	-506.43585	-464.63620	937.03516	-716.57062	-447.39969	486.47421	-398.82425	-661.95837	463.83740	-643.35168	-526.26758	73.58111	-430.16489	-590.70795	159.43216	-935.06134	
153	1.520	-372.73404	1625.94910	-447.63489	-500.34381	1494.68018	-659.69092							-302.39661	1462.21545	-513.60406	-714.56415	1447.08325	-566.19891	-544.13635	1305.69641	-447.41382				-227.87511	1160.82886	-538.34601	-800.38245	1170.90381	-624.06390	-191.82663	916.64227	-482.96695	-847.41565	921.92627	-532.56836	-423.41705	907.42944	-402.60791	-683.94171	935.96808	-494.66116	-465.79745	937.81146	-705.02216	-448.23825	488.49478	-391.96585	-669.22888	465.91641	-627.91864	-526.35999	73.71187	-429.80737	-597.03680	167.37196	-920.21741	
154	1.530	-371.60968	1627.10913	-439.40659	-499.89297	1495.20044	-650.74982							-302.05371	1463.81042	-506.08759	-715.07886	1449.06250	-557.04071	-542.89111	1307.13599	-437.71201				-227.20616	1161.01233	-527.78119	-800.36206	1172.71887	-616.15735	-192.02113	917.73236	-472.43362	-848.74658	924.63196	-525.00995	-423.19632	908.45331	-392.21844	-684.18799	938.16461	-483.85123	-466.87613	938.89160	-694.89801	-449.61749	488.90524	-384.85196	-677.99408	468.95761	-612.11462	-525.44922	74.67533	-429.12433	-604.42480	174.12152	-905.95245	
155	1.540	-370.32904	1627.40210	-430.59717	-499.47833	1496.13660	-642.14990							-301.41287	1464.86462	-497.90192	-713.72345	1450.46643	-547.46472	-543.30273	1308.94446	-428.50763				-227.95253	1162.69727	-518.55865	-800.92474	1174.52014	-608.92804	-191.87695	918.68695	-460.16904	-848.62921	925.92194	-516.18115	-423.83929	909.83508	-381.46689	-684.62952	940.46466	-471.80792	-467.72357	940.14893	-684.34375	-450.12469	489.17209	-378.60812	-687.87427	471.96005	-595.86115	-525.95349	74.62258	-428.92532	-611.89661	182.15761	-888.55280	
